<svg width="37" height="30" viewBox="0 0 37 30" fill="none" xmlns="http://www.w3.org/2000/svg">
<g id="Group">
<path id="Vector" fill-rule="evenodd" clip-rule="evenodd" d="M10.5 25.6668C10.5 25.2955 10.6384 24.9394 10.8847 24.6769C11.1311 24.4143 11.4652 24.2668 11.8135 24.2668H35.4572C35.8056 24.2668 36.1397 24.4143 36.386 24.6769C36.6324 24.9394 36.7708 25.2955 36.7708 25.6668C36.7708 26.0382 36.6324 26.3943 36.386 26.6568C36.1397 26.9194 35.8056 27.0669 35.4572 27.0669H11.8135C11.4652 27.0669 11.1311 26.9194 10.8847 26.6568C10.6384 26.3943 10.5 26.0382 10.5 25.6668ZM10.5 14.4665C10.5 14.0952 10.6384 13.7391 10.8847 13.4766C11.1311 13.214 11.4652 13.0665 11.8135 13.0665H35.4572C35.8056 13.0665 36.1397 13.214 36.386 13.4766C36.6324 13.7391 36.7708 14.0952 36.7708 14.4665C36.7708 14.8379 36.6324 15.194 36.386 15.4565C36.1397 15.7191 35.8056 15.8666 35.4572 15.8666H11.8135C11.4652 15.8666 11.1311 15.7191 10.8847 15.4565C10.6384 15.194 10.5 14.8379 10.5 14.4665ZM10.5 3.26625C10.5 2.89494 10.6384 2.53883 10.8847 2.27627C11.1311 2.01371 11.4652 1.86621 11.8135 1.86621H35.4572C35.8056 1.86621 36.1397 2.01371 36.386 2.27627C36.6324 2.53883 36.7708 2.89494 36.7708 3.26625C36.7708 3.63756 36.6324 3.99367 36.386 4.25622C36.1397 4.51878 35.8056 4.66629 35.4572 4.66629H11.8135C11.4652 4.66629 11.1311 4.51878 10.8847 4.25622C10.6384 3.99367 10.5 3.63756 10.5 3.26625Z" fill="black"/>
<path id="Vector_2" d="M1.87311 26.6875V25.3603H2.62708C3.19715 25.3603 3.5807 24.9767 3.5807 24.4727C3.5807 23.9546 3.16563 23.6046 2.63233 23.6046C2.04649 23.6046 1.66819 24.0302 1.65243 24.4727H0.102456C0.144489 23.165 1.08236 22.269 2.69275 22.269C4.23747 22.2634 5.19898 23.0838 5.20687 24.2374C5.21184 24.6331 5.08452 25.0178 4.84769 25.3225C4.61087 25.6273 4.28001 25.8322 3.91434 25.9007V25.9931C4.32892 26.026 4.71563 26.2281 4.99403 26.5571C5.27244 26.8862 5.42112 27.317 5.40915 27.7599C5.41703 29.2524 4.09036 30 2.64809 30C0.92473 30 0.0210166 28.964 0 27.7767H1.52896C1.54997 28.2752 2.01759 28.6336 2.63758 28.642C3.30486 28.642 3.75147 28.236 3.74621 27.6619C3.74096 27.1159 3.33901 26.6875 2.6586 26.6875H1.87048H1.87311ZM1.8626 13.53H0.275843V13.432C0.275843 12.2895 1.05083 11.0687 2.79258 11.0687C4.32417 11.0687 5.31458 11.9815 5.31458 13.1856C5.31458 14.2748 4.63942 14.9132 4.06409 15.56L2.65335 17.1617V17.2457H5.42229V18.6653H0.375672V17.5593L2.88978 14.7872C3.25232 14.3896 3.65952 13.936 3.65952 13.3648C3.65952 12.8607 3.27334 12.4687 2.76106 12.4687C2.64279 12.4641 2.52489 12.4853 2.41462 12.5311C2.30435 12.5769 2.20404 12.6463 2.11986 12.7349C2.03569 12.8236 1.96944 12.9297 1.9252 13.0467C1.88095 13.1637 1.85965 13.2891 1.8626 13.4152V13.53ZM4.10875 7.465H2.44055V1.65204H2.35911L0.788123 2.82808V1.24043L2.44055 0H4.10875V7.465Z" fill="black"/>
</g>
</svg>
