<svg width="32" height="31" viewBox="0 0 32 31" fill="none" xmlns="http://www.w3.org/2000/svg">
<g id="Group 178">
<path id="Vector" d="M14.0885 22.4404C13.9713 22.441 13.8551 22.4193 13.7466 22.3764C13.638 22.3336 13.5393 22.2704 13.4561 22.1906L7.71929 16.6451C7.63672 16.5646 7.57141 16.4692 7.52708 16.3643C7.48274 16.2594 7.46027 16.147 7.46095 16.0337C7.46027 15.9204 7.48274 15.808 7.52708 15.7031C7.57141 15.5982 7.63672 15.5028 7.71929 15.4223L20.4845 3.04814C20.9443 2.60429 21.4899 2.25232 22.0904 2.01233C22.6908 1.77233 23.3343 1.64902 23.9841 1.64942C24.6338 1.64981 25.2771 1.77392 25.8773 2.01466C26.4774 2.25539 27.0226 2.60803 27.4818 3.05244C27.9409 3.49686 28.305 4.02434 28.5533 4.60478C28.8016 5.18522 28.9292 5.80725 28.9287 6.43535C28.9283 7.06345 28.7999 7.68532 28.5509 8.26545C28.3019 8.84558 27.9371 9.37262 27.4773 9.81647L14.721 22.1906C14.6378 22.2704 14.5391 22.3336 14.4305 22.3764C14.322 22.4193 14.2058 22.441 14.0885 22.4404ZM9.63452 16.0337L14.0885 20.3392L26.2569 8.61092C26.8466 8.03946 27.1777 7.26527 27.1777 6.45814C27.1777 5.651 26.8466 4.87681 26.2569 4.30536C25.656 3.75355 24.8588 3.44589 24.0299 3.44589C23.2011 3.44589 22.4039 3.75355 21.8029 4.30536L9.63452 16.0337Z" fill="black"/>
<path id="Vector_2" d="M9.25215 24.3518C9.01664 24.3554 8.78923 24.2687 8.61967 24.1107L5.75128 21.3293C5.62618 21.2092 5.54078 21.0559 5.50589 20.8888C5.471 20.7217 5.4882 20.5483 5.55531 20.3907L7.53289 15.7063C7.58848 15.5752 7.67665 15.4595 7.78958 15.3692C7.90251 15.279 8.03673 15.2171 8.18032 15.189C8.32392 15.1609 8.47247 15.1675 8.61282 15.2081C8.75316 15.2488 8.88096 15.3223 8.9849 15.4221L14.7306 20.9676C14.8379 21.0679 14.9174 21.1926 14.9618 21.3303C15.0063 21.468 15.0142 21.6142 14.985 21.7557C14.9557 21.8971 14.8902 22.0292 14.7944 22.1397C14.6985 22.2503 14.5755 22.3358 14.4366 22.3885L9.59065 24.3001C9.481 24.3331 9.36697 24.3505 9.25215 24.3518ZM7.426 20.5113L9.46594 22.4746L12.5214 21.269L8.68203 17.5576L7.426 20.5113Z" fill="black"/>
<path id="Vector_3" d="M7.96633 25.8352H3.51231C3.35113 25.8359 3.19277 25.7944 3.05408 25.715C2.9154 25.6356 2.8016 25.5213 2.7248 25.3844C2.64801 25.2474 2.6111 25.0928 2.61801 24.9372C2.62491 24.7815 2.67538 24.6306 2.76403 24.5004L5.63242 20.2466C5.70481 20.1385 5.80134 20.0475 5.91491 19.9803C6.02848 19.913 6.1562 19.8713 6.28867 19.8581C6.42114 19.8448 6.55499 19.8605 6.68037 19.9039C6.80575 19.9473 6.91947 20.0173 7.01317 20.1088L9.87265 22.8816C10.0304 23.0337 10.1233 23.2376 10.1332 23.4528C10.1431 23.668 10.0692 23.8789 9.9261 24.0441L8.64334 25.5252C8.56055 25.6213 8.4571 25.6988 8.34018 25.7523C8.22327 25.8058 8.09569 25.8341 7.96633 25.8352ZM5.15139 24.1129H7.54765L8.01978 23.5446L6.50541 22.0807L5.15139 24.1129Z" fill="black"/>
<path id="Vector_4" d="M3.36892 27.4861H31.7092V30.6389H3.36892V27.4861Z" fill="black" stroke="black" stroke-width="0.722222" stroke-linejoin="round"/>
</g>
</svg>
