<svg xmlns="http://www.w3.org/2000/svg" width="17" height="18" viewBox="0 0 17 18" fill="none">
  <path d="M11.2844 9.38425L5.36311 15.0261C5.26431 15.1203 5.13305 15.1729 4.99655 15.1729C4.86005 15.1729 4.72879 15.1203 4.62999 15.0261L4.62361 15.0198C4.57555 14.9741 4.53728 14.9191 4.51113 14.8582C4.48497 14.7973 4.47149 14.7317 4.47149 14.6654C4.47149 14.5991 4.48497 14.5335 4.51113 14.4726C4.53728 14.4117 4.57555 14.3567 4.62361 14.3111L10.1996 8.99856L4.62361 3.68819C4.57555 3.64253 4.53728 3.58757 4.51113 3.52665C4.48498 3.46574 4.47149 3.40014 4.47149 3.33385C4.47149 3.26755 4.48498 3.20195 4.51113 3.14104C4.53728 3.08012 4.57555 3.02516 4.62361 2.9795L4.62999 2.97313C4.72879 2.87894 4.86005 2.8264 4.99655 2.8264C5.13305 2.8264 5.26431 2.87894 5.36311 2.97313L11.2844 8.615C11.3365 8.66462 11.378 8.72429 11.4063 8.79041C11.4346 8.85652 11.4492 8.9277 11.4492 8.99963C11.4492 9.07155 11.4346 9.14273 11.4063 9.20885C11.378 9.27496 11.3365 9.33464 11.2844 9.38425Z" fill="#505050"/>
</svg>