<svg width="32" height="32" viewBox="0 0 32 32" fill="none" xmlns="http://www.w3.org/2000/svg">
<g id="icon_delete_photo">
<path id="Vector" d="M24.8811 2.87892C25.1567 2.5876 25.4878 2.35448 25.855 2.19334C26.2222 2.03219 26.618 1.9463 27.0189 1.94072C27.4199 1.93514 27.8179 2.01 28.1894 2.16088C28.5609 2.31175 28.8984 2.53557 29.182 2.81911C29.4655 3.10265 29.6893 3.44016 29.8402 3.81168C29.9911 4.1832 30.0659 4.5812 30.0603 4.98215C30.0548 5.38309 29.9689 5.77886 29.8077 6.14604C29.6466 6.51322 29.4135 6.84437 29.1221 7.11992L20.3321 15.9099C20.3205 15.9215 20.3113 15.9353 20.305 15.9505C20.2987 15.9657 20.2954 15.982 20.2954 15.9984C20.2954 16.0149 20.2987 16.0311 20.305 16.0463C20.3113 16.0615 20.3205 16.0753 20.3321 16.0869L29.1221 24.8769C29.4045 25.1546 29.629 25.4855 29.7829 25.8504C29.9367 26.2153 30.0167 26.6071 30.0184 27.0031C30.0201 27.3991 29.9433 27.7916 29.7925 28.1578C29.6418 28.524 29.42 28.8567 29.14 29.1368C28.86 29.4168 28.5273 29.6387 28.1612 29.7895C27.795 29.9404 27.4026 30.0172 27.0066 30.0157C26.6105 30.0141 26.2188 29.9341 25.8538 29.7804C25.4888 29.6267 25.1579 29.4022 24.8801 29.1199L16.0901 20.3299C16.0785 20.3183 16.0647 20.309 16.0496 20.3027C16.0344 20.2964 16.0181 20.2932 16.0016 20.2932C15.9852 20.2932 15.9689 20.2964 15.9537 20.3027C15.9386 20.309 15.9248 20.3183 15.9131 20.3299L7.12315 29.1199C6.84544 29.4023 6.51458 29.6268 6.14966 29.7806C5.78473 29.9345 5.39296 30.0145 4.99694 30.0162C4.60092 30.0178 4.2085 29.9411 3.8423 29.7903C3.47609 29.6395 3.14337 29.4178 2.8633 29.1378C2.58324 28.8578 2.36139 28.5251 2.21054 28.1589C2.05969 27.7928 1.98283 27.4004 1.9844 27.0043C1.98596 26.6083 2.06592 26.2165 2.21966 25.8516C2.3734 25.4866 2.59788 25.1557 2.88015 24.8779L11.6701 16.0879C11.6818 16.0763 11.691 16.0625 11.6973 16.0473C11.7036 16.0321 11.7069 16.0159 11.7069 15.9994C11.7069 15.983 11.7036 15.9667 11.6973 15.9515C11.691 15.9363 11.6818 15.9225 11.6701 15.9109L2.88015 7.12092C2.32504 6.55683 2.01532 5.79624 2.01845 5.00483C2.02157 4.21342 2.3373 3.4553 2.89685 2.89562C3.4564 2.33594 4.21444 2.02003 5.00585 2.01672C5.79727 2.0134 6.55793 2.32294 7.12215 2.87792L15.9121 11.6679C15.9238 11.6796 15.9376 11.6888 15.9527 11.6951C15.9679 11.7014 15.9842 11.7046 16.0006 11.7046C16.0171 11.7046 16.0334 11.7014 16.0486 11.6951C16.0637 11.6888 16.0775 11.6796 16.0891 11.6679L24.8791 2.87792L24.8811 2.87892Z" fill="black"/>
</g>
</svg>
