<svg width="56" height="50" viewBox="0 0 56 50" fill="none" xmlns="http://www.w3.org/2000/svg">
<g id="Group">
<path id="Vector" d="M3 15H10.5M3 25H15.5" stroke="#E51428" stroke-width="5" stroke-linecap="round" stroke-linejoin="round"/>
<path id="Vector_2" d="M3 2.5V0C2.33696 0 1.70107 0.263392 1.23223 0.732233C0.763392 1.20107 0.5 1.83696 0.5 2.5H3ZM30.5 2.5H33C33 1.83696 32.7366 1.20107 32.2678 0.732233C31.7989 0.263392 31.163 0 30.5 0V2.5ZM30.5 17.5V15C29.837 15 29.2011 15.2634 28.7322 15.7322C28.2634 16.2011 28 16.837 28 17.5H30.5ZM3 5H30.5V0H3V5ZM28 2.5V42.5H33V2.5H28ZM5.5 37.5V2.5H0.5V37.5H5.5ZM30.5 20H43V15H30.5V20ZM50.5 27.5V37.5H55.5V27.5H50.5ZM33 42.5V17.5H28V42.5H33ZM44.7675 44.2675C44.2987 44.7362 43.6629 44.9995 43 44.9995C42.3371 44.9995 41.7013 44.7362 41.2325 44.2675L37.6975 47.8025C39.104 49.2085 41.0113 49.9984 43 49.9984C44.9887 49.9984 46.896 49.2085 48.3025 47.8025L44.7675 44.2675ZM41.2325 40.7325C41.7013 40.2638 42.3371 40.0005 43 40.0005C43.6629 40.0005 44.2987 40.2638 44.7675 40.7325L48.3025 37.1975C46.896 35.7915 44.9887 35.0016 43 35.0016C41.0113 35.0016 39.104 35.7915 37.6975 37.1975L41.2325 40.7325ZM14.7675 44.2675C14.2987 44.7362 13.6629 44.9995 13 44.9995C12.3371 44.9995 11.7013 44.7362 11.2325 44.2675L7.6975 47.8025C9.10396 49.2085 11.0113 49.9984 13 49.9984C14.9887 49.9984 16.896 49.2085 18.3025 47.8025L14.7675 44.2675ZM11.2325 40.7325C11.7013 40.2638 12.3371 40.0005 13 40.0005C13.6629 40.0005 14.2987 40.2638 14.7675 40.7325L18.3025 37.1975C16.896 35.7915 14.9887 35.0016 13 35.0016C11.0113 35.0016 9.10396 35.7915 7.6975 37.1975L11.2325 40.7325ZM44.7675 40.7325C45.2575 41.22 45.5 41.8575 45.5 42.5H50.5C50.5 40.585 49.7675 38.66 48.3025 37.1975L44.7675 40.7325ZM45.5 42.5C45.5008 42.8284 45.4364 43.1537 45.3107 43.4571C45.1849 43.7605 45.0003 44.0359 44.7675 44.2675L48.3025 47.8025C48.9997 47.1067 49.5526 46.2802 49.9297 45.3703C50.3068 44.4603 50.5006 43.485 50.5 42.5H45.5ZM38 40H30.5V45H38V40ZM41.2325 44.2675C40.9997 44.0359 40.8151 43.7605 40.6893 43.4571C40.5636 43.1537 40.4992 42.8284 40.5 42.5H35.5C35.5 44.415 36.2325 46.34 37.6975 47.8025L41.2325 44.2675ZM40.5 42.5C40.4987 42.1715 40.5628 41.8461 40.6886 41.5426C40.8143 41.2392 40.9992 40.9638 41.2325 40.7325L37.6975 37.1975C37.0003 37.8933 36.4474 38.7198 36.0703 39.6297C35.6932 40.5397 35.4994 41.515 35.5 42.5H40.5ZM11.2325 44.2675C10.9997 44.0359 10.8151 43.7605 10.6893 43.4571C10.5636 43.1537 10.4992 42.8284 10.5 42.5H5.5C5.5 44.415 6.2325 46.34 7.6975 47.8025L11.2325 44.2675ZM10.5 42.5C10.4987 42.1715 10.5628 41.8461 10.6886 41.5426C10.8143 41.2392 10.9992 40.9638 11.2325 40.7325L7.6975 37.1975C7.00035 37.8933 6.44737 38.7198 6.07028 39.6297C5.69319 40.5397 5.49939 41.515 5.5 42.5H10.5ZM30.5 40H18V45H30.5V40ZM14.7675 40.7325C15.2575 41.22 15.5 41.8575 15.5 42.5H20.5C20.5 40.585 19.7675 38.66 18.3025 37.1975L14.7675 40.7325ZM15.5 42.5C15.5008 42.8284 15.4364 43.1537 15.3107 43.4571C15.1849 43.7605 15.0003 44.0359 14.7675 44.2675L18.3025 47.8025C18.9997 47.1067 19.5526 46.2802 19.9297 45.3703C20.3068 44.4603 20.5006 43.485 20.5 42.5H15.5ZM50.5 37.5C50.5 38.163 50.2366 38.7989 49.7678 39.2678C49.2989 39.7366 48.663 40 48 40V45C49.9891 45 51.8968 44.2098 53.3033 42.8033C54.7098 41.3968 55.5 39.4891 55.5 37.5H50.5ZM43 20C44.9891 20 46.8968 20.7902 48.3033 22.1967C49.7098 23.6032 50.5 25.5109 50.5 27.5H55.5C55.5 25.8585 55.1767 24.233 54.5485 22.7165C53.9203 21.1999 52.9996 19.8219 51.8388 18.6612C50.6781 17.5004 49.3001 16.5797 47.7835 15.9515C46.267 15.3233 44.6415 15 43 15V20ZM0.5 37.5C0.5 39.4891 1.29018 41.3968 2.6967 42.8033C4.10322 44.2098 6.01088 45 8 45V40C7.33696 40 6.70107 39.7366 6.23223 39.2678C5.76339 38.7989 5.5 38.163 5.5 37.5H0.5Z" fill="#E51428"/>
</g>
</svg>
