<svg width="56" height="57" viewBox="0 0 56 57" fill="none" xmlns="http://www.w3.org/2000/svg">
<g id="solar:delivery-bold">
<g id="Group">
<path id="Vector" d="M19.8829 19.2075L20.6725 23.6393C21.416 27.8141 21.7865 29.9026 23.3531 30.9826C24.9196 32.065 27.0693 31.7143 31.3684 31.0175L35.9291 30.275C40.2282 29.5783 42.3778 29.2299 43.4832 27.7171C44.5888 26.2019 44.2183 24.1135 43.4725 19.9384L42.685 15.5092C41.9417 11.332 41.5689 9.24337 40.0046 8.16355C38.4358 7.08097 36.286 7.43168 31.9867 8.13077L27.4265 8.86858C23.1274 9.56535 20.9776 9.91606 19.8743 11.4314C18.7689 12.9442 19.1394 15.0327 19.8829 19.2075Z" fill="#E51428"/>
<path id="Vector_2" d="M5.12582 10.7339C5.18718 10.5127 5.29154 10.3058 5.43292 10.1249C5.57431 9.94411 5.74995 9.79291 5.94981 9.68001C6.14967 9.5671 6.36982 9.49469 6.59769 9.46693C6.82555 9.43916 7.05665 9.45658 7.27777 9.51819L11.244 10.6175C12.2951 10.9029 13.2544 11.4559 14.0282 12.2224C14.8021 12.9889 15.3642 13.9428 15.6597 14.9912L20.6692 33.1244L21.0372 34.396C22.5114 34.948 23.7784 35.9797 24.5819 37.3491L25.3038 37.1256L45.9616 31.7573C46.1837 31.6995 46.4149 31.686 46.6422 31.7176C46.8694 31.7492 47.0883 31.8252 47.2862 31.9413C47.484 32.0574 47.6571 32.2114 47.7955 32.3944C47.9339 32.5775 48.0348 32.7859 48.0926 33.008C48.1504 33.23 48.1639 33.4613 48.1324 33.6885C48.1008 33.9158 48.0248 34.1346 47.9086 34.3325C47.7925 34.5304 47.6385 34.7034 47.4555 34.8418C47.2725 34.9802 47.064 35.0812 46.842 35.139L26.2587 40.4862L25.4948 40.7238C25.4785 43.6816 23.436 46.3855 20.3478 47.189C16.6425 48.1531 12.8346 46.0198 11.8425 42.4286C10.8504 38.835 13.0489 35.1413 16.7519 34.1794C16.9344 34.1324 17.1185 34.092 17.3039 34.0583L12.292 15.9205C12.1571 15.4545 11.9039 15.0313 11.557 14.6922C11.2101 14.3531 10.7813 14.1095 10.3124 13.9851L6.34386 12.8835C6.12271 12.8224 5.91577 12.7183 5.73486 12.5772C5.55396 12.4361 5.40262 12.2607 5.28951 12.061C5.1764 11.8614 5.10372 11.6415 5.07564 11.4138C5.04755 11.186 5.0646 10.955 5.12582 10.7339Z" fill="black"/>
</g>
</g>
</svg>
