<svg width="32" height="32" viewBox="0 0 32 32" fill="none" xmlns="http://www.w3.org/2000/svg">
<g id="icon_highlight_red" clip-path="url(#clip0_928_982)">
<g id="Group 177">
<path id="Vector" d="M14.0626 23.1647C13.9456 23.1654 13.8296 23.143 13.7213 23.0988C13.613 23.0545 13.5145 22.9894 13.4315 22.907L7.70701 17.1825C7.62463 17.0995 7.55945 17.001 7.51521 16.8927C7.47098 16.7844 7.44856 16.6684 7.44923 16.5514C7.44856 16.4344 7.47098 16.3185 7.51521 16.2102C7.55945 16.1019 7.62463 16.0034 7.70701 15.9203L20.4448 3.14697C20.9035 2.6888 21.448 2.32548 22.0472 2.07774C22.6464 1.83001 23.2885 1.70271 23.9368 1.70313C24.5852 1.70354 25.2271 1.83165 25.826 2.08015C26.4248 2.32865 26.9688 2.69266 27.427 3.15141C27.8852 3.61016 28.2485 4.15467 28.4962 4.75383C28.744 5.35299 28.8713 5.99509 28.8709 6.64345C28.8704 7.2918 28.7423 7.93373 28.4938 8.53258C28.2453 9.13143 27.8813 9.67547 27.4226 10.1336L14.6937 22.907C14.6106 22.9894 14.5121 23.0545 14.4038 23.0988C14.2955 23.143 14.1796 23.1654 14.0626 23.1647ZM9.61812 16.5514L14.0626 20.9959L26.2048 8.88919C26.7932 8.29931 27.1236 7.50014 27.1236 6.66697C27.1236 5.8338 26.7932 5.03463 26.2048 4.44475C25.6051 3.87514 24.8096 3.55755 23.9826 3.55755C23.1555 3.55755 22.36 3.87514 21.7603 4.44475L9.61812 16.5514Z" fill="#E51428"/>
<path id="Vector_2" d="M9.22843 25.1382C8.99342 25.1419 8.76651 25.0524 8.59732 24.8893L5.73509 22.0182C5.61026 21.8942 5.52504 21.7359 5.49023 21.5634C5.45541 21.3909 5.47258 21.212 5.53954 21.0493L7.51287 16.2137C7.56834 16.0785 7.65632 15.959 7.76901 15.8658C7.8817 15.7727 8.01562 15.7088 8.15891 15.6798C8.3022 15.6508 8.45043 15.6576 8.59047 15.6995C8.73052 15.7415 8.85804 15.8174 8.96176 15.9204L14.6951 21.6448C14.8021 21.7483 14.8815 21.877 14.9258 22.0192C14.9702 22.1613 14.9781 22.3123 14.9489 22.4583C14.9197 22.6043 14.8543 22.7406 14.7587 22.8547C14.6631 22.9689 14.5404 23.0572 14.4018 23.1115L9.5662 25.0848C9.45679 25.1189 9.34301 25.1369 9.22843 25.1382ZM7.4062 21.1737L9.44176 23.2004L12.4906 21.956L8.65954 18.1248L7.4062 21.1737Z" fill="#E51428"/>
<path id="Vector_3" d="M7.94701 26.6668H3.50257C3.34174 26.6676 3.18372 26.6247 3.04533 26.5428C2.90695 26.4608 2.79339 26.3428 2.71676 26.2014C2.64013 26.06 2.6033 25.9005 2.61019 25.7398C2.61709 25.5791 2.66744 25.4233 2.7559 25.289L5.61812 20.8979C5.69036 20.7864 5.78668 20.6924 5.9 20.623C6.01333 20.5536 6.14077 20.5105 6.27296 20.4969C6.40514 20.4832 6.5387 20.4994 6.66382 20.5442C6.78893 20.589 6.90241 20.6613 6.9959 20.7557L9.84924 23.6179C10.0066 23.775 10.0994 23.9854 10.1093 24.2075C10.1191 24.4297 10.0454 24.6475 9.90257 24.8179L8.62257 26.3468C8.53996 26.446 8.43673 26.526 8.32006 26.5813C8.2034 26.6365 8.0761 26.6657 7.94701 26.6668ZM5.13812 24.889H7.52924L8.00035 24.3024L6.48924 22.7912L5.13812 24.889Z" fill="#E51428"/>
<path id="Vector_4" d="M2.71875 29H29.3854V31.6667H2.71875V29Z" fill="#E51428"/>
</g>
</g>
<defs>
<clipPath id="clip0_928_982">
<rect width="32" height="32" fill="white"/>
</clipPath>
</defs>
</svg>
