<svg width="27" height="25" viewBox="0 0 27 25" fill="none" xmlns="http://www.w3.org/2000/svg">
<g id="icon_&#208;&#189;&#208;&#181;&#208;&#189;&#209;&#131;&#208;&#188;&#208;&#181;&#209;&#128;&#208;&#190;&#208;&#178;&#208;&#176;&#208;&#189;&#208;&#189;&#209;&#139;&#208;&#185; &#209;&#129;&#208;&#191;&#208;&#184;&#209;&#129;&#208;&#190;&#208;&#186;">
<path id="Vector" fill-rule="evenodd" clip-rule="evenodd" d="M0 23.6111C0 23.2428 0.137289 22.8895 0.381663 22.629C0.626038 22.3685 0.957481 22.2222 1.30308 22.2222H24.7585C25.1041 22.2222 25.4355 22.3685 25.6799 22.629C25.9243 22.8895 26.0616 23.2428 26.0616 23.6111C26.0616 23.9795 25.9243 24.3327 25.6799 24.5932C25.4355 24.8537 25.1041 25 24.7585 25H1.30308C0.957481 25 0.626038 24.8537 0.381663 24.5932C0.137289 24.3327 0 23.9795 0 23.6111ZM0 12.5C0 12.1316 0.137289 11.7784 0.381663 11.5179C0.626038 11.2574 0.957481 11.1111 1.30308 11.1111H24.7585C25.1041 11.1111 25.4355 11.2574 25.6799 11.5179C25.9243 11.7784 26.0616 12.1316 26.0616 12.5C26.0616 12.8684 25.9243 13.2216 25.6799 13.4821C25.4355 13.7426 25.1041 13.8889 24.7585 13.8889H1.30308C0.957481 13.8889 0.626038 13.7426 0.381663 13.4821C0.137289 13.2216 0 12.8684 0 12.5ZM0 1.38889C0 1.02053 0.137289 0.667264 0.381663 0.406796C0.626038 0.146329 0.957481 0 1.30308 0H24.7585C25.1041 0 25.4355 0.146329 25.6799 0.406796C25.9243 0.667264 26.0616 1.02053 26.0616 1.38889C26.0616 1.75725 25.9243 2.11051 25.6799 2.37098C25.4355 2.63145 25.1041 2.77778 24.7585 2.77778H1.30308C0.957481 2.77778 0.626038 2.63145 0.381663 2.37098C0.137289 2.11051 0 1.75725 0 1.38889Z" fill="black"/>
</g>
</svg>
